<svg xmlns="http://www.w3.org/2000/svg" fill-rule="evenodd" stroke-linecap="round" stroke-miterlimit="5" clip-rule="evenodd" viewBox="0 0 250 250" id="five-star-gold">
  <path fill="#ffc830" d="M169.564,36.364L209.829,117.948L299.862,131.031L234.713,194.535L250.093,284.205L169.564,241.869L89.036,284.205L104.416,194.535L39.267,131.031L129.3,117.948L169.564,36.364Z" transform="translate(-29.708 -21.241)scale(.91239)"></path>
  <path fill="#e5b32c" d="M243.882 98.309L125 136.936 184.441 156.25 243.882 98.309zM125 11.936L125 136.936 161.737 86.373 125 11.936zM6.118 98.309L125 136.936 65.559 156.25 6.118 98.309zM51.527 238.064L125 136.936 198.473 238.064 125 199.436 51.527 238.064z"></path>
  <path fill="#fed86b" d="M125.563,13.061L125,11.936L124.438,13.061C124.719,12.78 125.281,12.78 125.563,13.061Z"></path>
  <path fill="none" stroke="#fed86b" stroke-width=".75" d="M125,12.836L125,199.436"></path>
  <path fill="#fed86b" d="M242.638,98.122L243.882,98.309L242.986,99.192C243.167,98.838 242.993,98.303 242.638,98.122Z"></path>
  <path fill="none" stroke="#fed86b" stroke-width=".75" d="M65.559,156.25C65.559,156.25 229.713,102.913 243.026,98.587"></path>
  <path fill="#fed86b" d="M197.357,237.484L198.473,238.064L198.267,236.823C198.205,237.216 197.75,237.546 197.357,237.484Z"></path>
  <path fill="none" stroke="#fed86b" stroke-width=".75" d="M197.944,237.335C189.716,226.01 88.263,86.373 88.263,86.373"></path>
  <path fill="#fed86b" d="M51.733,236.823L51.527,238.064L52.643,237.484C52.25,237.546 51.795,237.216 51.733,236.823Z"></path>
  <path fill="none" stroke="#fed86b" stroke-width=".75" d="M52.056,237.335C60.284,226.01 161.737,86.373 161.737,86.373"></path>
  <path fill="#fed86b" d="M7.014,99.192L6.118,98.309L7.362,98.122C7.007,98.303 6.833,98.838 7.014,99.192Z"></path>
  <path fill="none" stroke="#fed86b" stroke-width=".75" d="M184.441,156.25C184.441,156.25 20.287,102.913 6.974,98.587"></path>
</svg>
